<svg id="图层_1" data-name="图层 1" xmlns="http://www.w3.org/2000/svg" viewBox="0 0 2834.65 4251.97"><defs><style>.cls-1,.cls-4{fill:#3b87c8;}.cls-1,.cls-2,.cls-3{fill-rule:evenodd;}.cls-2{fill:#8aba29;}.cls-3{fill:#fdfefe;}</style></defs><title>未标题-7</title><path class="cls-1" d="M1006.43,1567.31l1.48,28.22c.37,4,.91,8.1,1.49,12.31.67,4.85.61,8.41,3.2,11.88,15.28,1.7,25.25,4,38.35,9.23,8.06,3.23,27.18,14.74,27.25,14.76,5.6,2.06,1.6,1.22,3.66-.35l.15-19.28c0-64.45,26.2-126,79.21-159.91,41.65-26.61,99.28-31.71,149.77-26,16.71,1.89,36,7.6,50.47,8.9-19.38-7.6-25.22-14.23-56.74-23.79-49.31-15-105-19.09-152.06,5.24-5.59,2.88-14.85,9.77-19,10.6,5.35-13.69,50.26-44.62,68.58-53.54,89.66-43.64,206.46-23.08,271.34,52.72,1.9,2.22,6.34,7.83,9.17,8.37h91c-10.61-32.11-55.78-87.36-83.7-107.55-3-2.17-4.68-3.52-7.67-5.91-46.86-37.5-112.66-59.61-184.75-59.61-65.39,0-138.4,27.74-186,69.44-7,6.13-13.23,10.78-19.91,17.11-22.3,21.2-46.34,59.58-59.11,86.54-16.09,34-26.19,77.73-26.19,120.62m127.26-128.19-4.55,4.17c.95-1.58.19-.93,1.6-2.21C1132.79,1439.21,1131.2,1440.16,1133.69,1439.12Z"/><path class="cls-1" d="M877.31,1927.12c9.85-4.77,36.12-28.31,46.66-32.47-1.54-4.62-2.82-13.09-.08-17.74l.22,15c9.19-3.9,30.95-21.19,42.21-25.31-2.08-3.9.2-.62-2.69-3.48-.25-.24-2.22-1.75-2.86-2.22-18.8-13.74-22.93-17-36.57-39.11l-.31,45.41c-.7,8-2.43,4.09,3.48,10-6.79-2.1-6.85.71-17.59-8.48-8.46-7.23-6.37-4.09-15.66-14-2.32-2.46-4.53-4.21-6.77-6.75-5.88-6.67-13.61-18.55-17.84-26.66-24.24-46.5-19.06-102.69,12.85-145,2.16-2.86,4.88-5,7.11-7.61,10.78-12.47,17.88-17.64,31.44-26.64,7-4.63,1.5-4.17,18.13-11.48,13.55-6,32.22-10.31,48.26-11-3.58-31.52-6.11-53.08-3.1-85.76-16.33,0-39.73,3.86-54.94,9.21-4.64,1.63-3.8,2.63-15.26,7-21.56,8.15-40.53,20.21-55.65,32-28,21.76-56.35,57.07-70.33,103.68-17.85,59.56-7.41,124.94,24.1,175.79l13.39,18.67c10.3,13.64,14.62,16.92,26.65,27.68,8.65,7.73,16.14,12.31,25.15,19.18m50.06-49.82"/><polygon class="cls-1" points="2026.96 1759.24 2168.24 1759.24 2168.21 1617.99 2027.17 1617.99 2026.96 1759.24"/><polygon class="cls-1" points="1617.53 1514.73 1758.35 1514.82 1758.77 1374.04 1617.53 1373.58 1617.53 1514.73"/><polygon class="cls-1" points="1490.54 1577.99 1596.73 1578.33 1596.9 1573.48 1596.88 1471.99 1490.54 1472.02 1490.54 1577.99"/><path class="cls-1" d="M1984.36,1881.47c-38.86,40.11-150.28,54.29-198.86,51.49-70.12-4-141.16-27-197.2-54,19.37,17.46,61,37.81,88.89,50.51,84.92,38.67,199.55,56.12,274.56-10.45,11.78-10.46,24.93-22.79,32.61-37.59"/><polygon class="cls-1" points="1911.08 1846.41 1993.64 1846.51 1993.61 1764.03 1911.53 1764 1911.08 1846.41"/><polygon class="cls-1" points="1658.77 1768.75 1733.3 1768.75 1738.13 1768.65 1738.13 1689.52 1733.3 1689.39 1658.79 1689.41 1658.77 1768.75"/><polygon class="cls-1" points="1825.4 1756.13 1825.65 1760.83 1904.54 1760.82 1904.78 1681.57 1899.9 1681.45 1825.55 1681.47 1825.4 1756.13"/><polygon class="cls-1" points="1934.9 1608.46 2014.28 1608.41 2014.27 1529.51 1934.99 1529.09 1934.9 1608.46"/><polygon class="cls-1" points="1773.03 1605.11 1852.26 1605.26 1852.37 1526.27 1773.51 1525.93 1773.03 1605.11"/><path class="cls-1" d="M922.43,1869.82c.28-14.62-.63-30.24.08-44.65.8-16.31-.68-7.5-9.38-33.73-3.89-11.74-6.22-25.54-7.36-38-1.3-14.22,1.16-32.33-.16-43.39,0,.39-9.49,31.92-10.72,38.28-7.13,37-5.55,75.44,15.56,107.52,2.68,4.08,9.24,12.19,12,14"/><path class="cls-2" d="M1506.78,1738.64l-1.77.28-74-73.15c-12.39-12.24-65.07-67.65-73.31-72l-537.39,546.1c6.69-2.63,11.7-8.47,20.15-14.77l458-351.72c29.57,8.67,114.49,80.44,156.16,103.5,7.11-2.51,12.18-8.57,19.25-13,187.63-117.94,380.6-271.32,561-400.62,7.6,4.68,22.72,21.32,30.3,28.87,10.2,10.15,20.37,19.86,29.62,30,7.43-10,56.08-208,68.37-249.29,7.63-25.63,18.28-61.47,23.18-86.71-21.93,2.78-62.88,16.07-85.28,22.31-29,8.08-55.78,15-83.86,22.47-21.25,5.66-160.75,40.93-167.27,46.75,7.72,6,53.9,51.79,58.23,58.7Z"/><path class="cls-3" d="M1450.86,1645.54l54.76,54.09,363.32-364.13c-1.74-1.77-3.57-3.62-5.44-5.5-13.33-13.44-27.62-27.33-30.91-29.88l-27-21,25.48-22.71c10.46-9.32,113.5-36,160.16-48,6.4-1.66,12.15-3.16,18.78-4.92l22.72-6c20.65-5.45,41.11-10.86,60.81-16.34,4.3-1.2,11.19-3.24,18.66-5.44,22.95-6.78,51.5-15.22,70.62-17.65l38.9-4.93-7.44,38.4c-2.55,13.16-6.65,29.25-11.11,45.43s-9,31.37-12.73,43.95v.11c-4.76,16-13.76,50.64-23.8,89.34-18.8,72.41-41.07,158.18-49,168.85l-20.59,27.6-23.21-25.49c-7-7.67-14.12-14.7-21.37-21.85l-.11-.12-7.14-7.06c-2.19-2.17-4.4-4.46-6.84-7-1.71-1.78-3.55-3.68-5.39-5.57-54,39-105.41,77.14-157.3,115.68C1748.17,1710,1617.52,1807.08,1489,1887.89c-1.28.8-3.07,2.25-4.82,3.64-5.72,4.6-11.22,9-20.1,12.15l-11.9,4.21-11.22-6.21c-19.63-10.86-46.22-30.29-73-49.81-24.85-18.14-49.84-36.4-65.73-45.6L857.64,2147.68l-.22.22c-2.81,2.1-4.7,3.7-6.42,5.15-6.33,5.36-11.64,9.85-20.4,13.29l-124.25,48.85L800,2120l537.38-546.11,14.82-15.06,18.65,9.83c10.1,5.33,43.11,39.17,64.8,61.42,6.83,7,12.47,12.79,15.18,15.47m399.08-367.87c7.72,6,53.9,51.79,58.23,58.7l-401.39,402.27-1.77.28-74-73.15c-12.39-12.24-65.07-67.65-73.31-72l-537.39,546.1c6.69-2.63,11.7-8.47,20.15-14.77l458-351.72c29.57,8.67,114.49,80.44,156.16,103.5,7.11-2.51,12.18-8.57,19.25-13,187.63-117.94,380.6-271.32,561-400.62,7.6,4.68,22.72,21.32,30.3,28.87,10.2,10.15,20.37,19.86,29.62,30,7.43-10,56.08-208,68.37-249.29,7.63-25.63,18.28-61.47,23.18-86.71-21.93,2.78-62.88,16.07-85.28,22.31-29,8.08-55.78,15-83.86,22.47C1996,1236.58,1856.46,1271.85,1849.94,1277.67Z"/><path class="cls-1" d="M861.27,1972.94c3-.61,57.7-28,72.72-33.78,86.24-33.47,175.43-53.21,271.26-44,73.93,7.11,102.88,22.76,168.63,45.14,54.27,18.47,106.14,34.6,163.36,50.11,145.38,39.45,407.08,64.46,539.71-31.36,14.92-10.77,16.68-13.42,28.78-24.22,23.61-21.09,43.05-47.59,57.23-76.06,1.93-3.88,4.71-11.29,7.59-16.88-14.71,33.68-50.13,66.62-81.34,86.27-59.79,37.64-137.31,62.08-213,66.81-123.48,7.72-259.21-47.57-360.44-86.74-54.18-21-108.62-41.16-164.72-59.86-63.68-21.22-119.63-33.72-193-25.85-63.79,6.84-121.13,28-169.89,54.73-39.83,21.86-52.25,32.32-84.41,56.29-10.38,7.73-35.06,30.38-42.47,39.39"/><path class="cls-1" d="M1137.24,1973.94c73.29,0,146.07,7,216.16,19,80,13.66,111,25.61,183.14,48.82-2.35-.65-12.63-6.69-17-9l-54.69-26.68c-160.24-74.36-363.17-109.14-529.71-33.65-10,4.54-60.85,28.74-70,37.86,10-2,19.93-5.72,30.49-8.33,82.18-20.33,155.22-28,241.62-28"/><path class="cls-4" d="M567,2509.86q0,32.71-7.4,56.27t-20.64,38.75A78.21,78.21,0,0,1,507,2627.07q-18.69,7-42.06,7-23.76,0-43.42-6.42A82.52,82.52,0,0,1,387.82,2607q-14-14.2-21.62-36.41t-7.59-53.74v-44.4q0-28.41-.19-57t-1-57.43l-35-3.9v-14H446.23v14l-41.67,4.67q-.78,28-.78,56.28v92.87q0,27.26,4.87,46.15t14,30.18a52.49,52.49,0,0,0,22.39,16.35,83.34,83.34,0,0,0,30,5.07q18.3,0,32.32-5.65a54.57,54.57,0,0,0,23.36-17.91q9.35-12.27,13.83-31.94t4.48-47.7l-.78-142.52-44.79-5.85v-14H606.28v14l-38.55,5.45Z"/><path class="cls-4" d="M820.46,2551.52a77.6,77.6,0,0,1-7.4,34.08,73.11,73.11,0,0,1-21,26.09q-13.63,10.72-32.71,16.55t-42.84,5.84a162.81,162.81,0,0,1-46.73-6.62q-22.18-6.61-37.77-16.35l2.34-61.92h21.42L669,2606a75.51,75.51,0,0,0,20.24,7.6,115.84,115.84,0,0,0,23.76,2.14q30.38,0,48.48-13.43t18.11-39.14a52.4,52.4,0,0,0-2.92-18.11,44.18,44.18,0,0,0-9-14.6,62.63,62.63,0,0,0-15.77-12.08,192.11,192.11,0,0,0-23.75-10.9l-16.75-7.4a227.75,227.75,0,0,1-31.35-16,108.38,108.38,0,0,1-23.36-19.08,78.87,78.87,0,0,1-14.8-23.37,76.66,76.66,0,0,1-5.26-29.2q0-19.08,7.4-33.88a71.83,71.83,0,0,1,20.45-24.93,92.44,92.44,0,0,1,31-15.38,137.88,137.88,0,0,1,38.94-5.26q22.19,0,39.52,6a128,128,0,0,1,32.13,16.55l-2.34,57.63h-21.8l-13.24-54.52a54.8,54.8,0,0,0-15.58-5.83,87.45,87.45,0,0,0-17.14-1.56q-26.09,0-42.44,12.27t-16.36,36.79q0,20.66,12.07,33.3t34.66,21.61l17.53,7.79q21.8,8.57,36.8,17.91t24.33,19.86a67.3,67.3,0,0,1,13.63,23A84.5,84.5,0,0,1,820.46,2551.52Z"/><path class="cls-4" d="M947,2613.06v14H848.88v-14L889,2607.6l.78-248.44-39.72-5.07v-14h84.89l92.68,229.76,88.79-229.76h86.84v14l-38.55,4.29q-.79,28.82-1,57.43t-.2,57.83v19.86q0,29.2.2,57.83t1,57.44l38.55,4.29v14h-121.5v-14l36.61-4.29q.78-28.42.58-56.66t.2-55.1l.78-118.77-95.8,248.83h-18.3l-99.69-248.44q.38,14.4.78,30.37t.77,30.18q.39,14.22.59,24.53c.12,6.89.19,11.23.19,13.05V2607.6Z"/><path class="cls-4" d="M1465.71,2613.06v14H1339.15v-14l38.56-4.29q.76-28.42.77-57.25V2416q0-28.82-.77-57.63l-38.56-4.29v-14h215l1.56,75.16h-21l-12.46-58h-98.13q-.4,28-.39,56.66v59h64.25l5.45-42.05h17.92v102.41h-17.92l-5.45-44.39h-64.25v61.33q0,29.41.39,58.61Z"/><path class="cls-4" d="M1769.85,2524.66q0,26.48-8.17,46.73t-22,33.87a92.05,92.05,0,0,1-32.13,20.65,106.9,106.9,0,0,1-38.55,7,108.44,108.44,0,0,1-38.74-7,90.6,90.6,0,0,1-32.33-20.84,100.89,100.89,0,0,1-22-34.07q-8.18-20.25-8.17-46.34,0-26.49,8.37-46.54a102.13,102.13,0,0,1,22.39-33.88,93,93,0,0,1,32.32-20.83,106.34,106.34,0,0,1,75.94,0,94.2,94.2,0,0,1,32.32,20.64q14,13.63,22.39,33.88T1769.85,2524.66Zm-156.54.38q0,46,14.41,69.13t41.27,23.17q26.09,0,40.89-23.17t14.8-69.13q0-46.34-14.8-69.89T1669,2431.59q-26.87,0-41.27,23.56T1613.31,2525Z"/><path class="cls-4" d="M1913.54,2614.61v12.46H1804.12v-12.46l30-4.28q.39-8.17.59-17.92t.39-19.66q.2-9.93.19-19.28v-41.66q0-18.32-.39-31.16t-1.17-26.09l-32.71-3.11v-11.69l65.81-23,5.84,3.89,3.9,53.35q9.73-27.65,26.87-42.64t35.44-15a43.52,43.52,0,0,1,20.05,4.67,25.16,25.16,0,0,1,12.65,14.8q-.39,13.64-6.22,21.61t-18.69,8a27.07,27.07,0,0,1-15.39-4.28,86.47,86.47,0,0,1-13-10.9l-5.07-5.06a95.41,95.41,0,0,0-21.61,23.94q-8.76,13.83-15,34.86v49.45q0,9.34.2,18.89t.39,19.08q.18,9.55.19,17.72Z"/><path class="cls-4" d="M2146,2591.63a121.29,121.29,0,0,1-34.46,30.18,79.67,79.67,0,0,1-40.31,11.1,67.9,67.9,0,0,1-24.33-4.08,43.19,43.19,0,0,1-18.31-13.44q-7.59-9.34-11.49-24.34t-3.5-36.41l1.16-110.2-30-5.84v-12.08l68.15-7.79,3.89,4.29-1.55,61.14v70.48q0,27.66,8.95,38.55T2090,2604.1a63.77,63.77,0,0,0,28.81-7,102.44,102.44,0,0,0,26.48-19.47l.78-133.18-29.59-5.84v-11.69l67.37-8.18,4.28,4.29-1.17,61.14v127l28,3.5v12.46l-65.81,3.9Z"/><path class="cls-4" d="M2346.57,2614.61v12.46H2244.93v-12.46l30.37-4.28q.39-8.17.59-17.92t.39-19.66q.18-9.93.19-19.28v-41.66q0-18.32-.39-31.16t-1.16-26.09l-32.72-3.11v-11.69l65.82-23,5.84,3.89,3.11,35.05q16.74-19.08,35.25-29.21a78.21,78.21,0,0,1,38-10.12q20.64,0,33.88,9.54t18.69,30.57q17.53-21.42,36.61-30.76a88.3,88.3,0,0,1,39.33-9.35q28,0,42.45,17.52t14.41,57.25v63.08q0,9.35.19,19.08t.39,19.28q.18,9.54.19,17.72l28.43,4.28v12.46H2503.9v-12.46l29.2-4.28q0-8.17.2-17.72t.38-19.28q.2-9.72.2-19.08v-61.14a122.68,122.68,0,0,0-2-24q-1.95-9.52-6-15.38a21.73,21.73,0,0,0-10.52-8.18,44,44,0,0,0-15-2.33q-12.46,0-25.9,6.62t-29,21.42a180.16,180.16,0,0,1,1.17,21.41v61.53q0,9.35.19,19.08t.4,19.28q.18,9.54.19,17.72l28,4.28v12.46H2374.22v-12.46l30.37-4.28q0-8.17.2-17.72t.39-19.28q.18-9.72.19-19.08V2493.5q0-28-7.79-39.13t-25.31-11.1a55.68,55.68,0,0,0-26.68,7q-13.05,7-27.84,21.42v82.16q0,9.34.2,19.28t.38,19.47q.2,9.54.2,17.72Z"/></svg>